<?xml version="1.0" encoding="UTF-8"?>
<svg id="Layer_2" data-name="Layer 2" xmlns="http://www.w3.org/2000/svg" xmlns:xlink="http://www.w3.org/1999/xlink" viewBox="0 0 540.21 457.37">
  <defs>
    <style>
      .cls-1 {
        fill: url(#linear-gradient-2);
      }

      .cls-2 {
        fill: #fff;
      }

      .cls-3 {
        fill: url(#linear-gradient-6);
      }

      .cls-4 {
        fill: url(#linear-gradient-5);
      }

      .cls-5 {
        fill: url(#linear-gradient-7);
      }

      .cls-6 {
        fill: url(#linear-gradient-9);
      }

      .cls-7 {
        mask: url(#mask);
      }

      .cls-8 {
        fill: url(#linear-gradient-3);
      }

      .cls-9 {
        fill: url(#linear-gradient);
      }

      .cls-10 {
        fill: url(#linear-gradient-4);
      }

      .cls-11 {
        fill: url(#linear-gradient-8);
      }
    </style>
    <mask id="mask" x="-1195.62" y="-239.27" width="1920" height="1080" maskUnits="userSpaceOnUse">
      <g id="mask0_140_1091" data-name="mask0 140 1091">
        <path class="cls-2" d="m-1195.62,840.73V-239.27H724.38V840.73"/>
      </g>
    </mask>
    <linearGradient id="linear-gradient" x1="230.37" y1="401.26" x2="540.21" y2="401.26" gradientTransform="translate(0 601.46) scale(1 -1)" gradientUnits="userSpaceOnUse">
      <stop offset="0" stop-color="#086e69"/>
      <stop offset=".05" stop-color="#065d59"/>
      <stop offset=".15" stop-color="#043b38"/>
      <stop offset=".21" stop-color="#032e2c"/>
      <stop offset=".23" stop-color="#022b29"/>
      <stop offset=".34" stop-color="#011716"/>
      <stop offset=".47" stop-color="#000a09"/>
      <stop offset=".64" stop-color="#000202"/>
      <stop offset=".95" stop-color="#000"/>
    </linearGradient>
    <linearGradient id="linear-gradient-2" x1="340.03" y1="152.15" x2="430.77" y2="152.15" xlink:href="#linear-gradient"/>
    <linearGradient id="linear-gradient-3" x1="316.26" y1="198.11" x2="454.55" y2="198.11" xlink:href="#linear-gradient"/>
    <linearGradient id="linear-gradient-4" x1="293.38" y1="484.99" x2="439.72" y2="338.78" gradientTransform="translate(0 601.46) scale(1 -1)" gradientUnits="userSpaceOnUse">
      <stop offset="0" stop-color="#0ec2b9"/>
      <stop offset=".06" stop-color="#0cb3ab"/>
      <stop offset=".38" stop-color="#076762"/>
      <stop offset=".64" stop-color="#032f2d"/>
      <stop offset=".84" stop-color="#000d0c"/>
      <stop offset=".95" stop-color="#000"/>
    </linearGradient>
    <linearGradient id="linear-gradient-5" x1="416.36" y1="364.7" x2="529.77" y2="251.38" xlink:href="#linear-gradient-4"/>
    <linearGradient id="linear-gradient-6" x1="15.18" y1="346.72" x2="215.44" y2="245.61" xlink:href="#linear-gradient-4"/>
    <linearGradient id="linear-gradient-7" x1="16.47" y1="605.89" x2="189.61" y2="406.6" xlink:href="#linear-gradient-4"/>
    <linearGradient id="linear-gradient-8" x1="290.15" y1="333.05" x2="378.62" y2="333.05" xlink:href="#linear-gradient-4"/>
    <linearGradient id="linear-gradient-9" x1="423.72" y1="442.14" x2="542.03" y2="442.14" xlink:href="#linear-gradient-4"/>
  </defs>
  <g id="Layer_1-2" data-name="Layer 1">
    <g class="cls-7">
      <g>
        <g>
          <path class="cls-9" d="m540.21,179.87c0-86-69.96-155.65-156.04-155.05-83.81.59-152.46,68.68-153.78,152.55-.78,49.54,21.66,93.86,57.14,122.78,9.68,7.88,15.22,19.74,15.22,32.22v1.5c0,23.04,18.66,41.72,41.68,41.72h81.7c23.03,0,41.69-18.68,41.69-41.72,0-13.29,5.83-25.95,16.07-34.41,34.39-28.44,56.31-71.45,56.31-119.58h.01Z"/>
          <path class="cls-1" d="m422.65,442.3h-74.49c-2.81,0-5.53-.37-8.13-1.05v1.55c0,8.05,6.52,14.57,14.56,14.57h61.62c8.05,0,14.56-6.53,14.56-14.57v-1.55c-2.6.68-5.32,1.05-8.13,1.05h.01Z"/>
          <path class="cls-8" d="m426.13,375.59h-81.7c-10.87,0-20.76-4.16-28.17-10.98v45.76c0,17.63,14.28,31.93,31.9,31.93h74.49c17.61,0,31.9-14.29,31.9-31.93v-45.97c-7.44,6.94-17.42,11.2-28.41,11.2h-.01Z"/>
        </g>
        <g>
          <path class="cls-10" d="m399.84,144.63h-8.01c-3.74,0-7.04-2.32-8.48-5.79-.02-.04-.03-.08-.05-.11-1.44-3.47-.75-7.45,1.9-10.11l5.65-5.66c3.56-3.56,3.56-9.33,0-12.89l-6.83-6.84c-3.56-3.56-9.32-3.56-12.88,0l-5.65,5.66c-2.66,2.66-6.64,3.34-10.1,1.9-.04-.02-.08-.03-.11-.05-3.47-1.43-5.79-4.73-5.79-8.49v-8.01c0-5.03-4.08-9.12-9.11-9.12h-9.67c-5.03,0-9.12,4.08-9.12,9.12v8.01c0,3.75-2.31,7.05-5.78,8.49-.04.02-.08.03-.11.05-3.47,1.44-7.44.75-10.1-1.9l-5.66-5.66c-3.55-3.56-9.32-3.56-12.88,0l-6.83,6.84c-3.56,3.56-3.56,9.33,0,12.89l5.65,5.66c2.66,2.66,3.34,6.64,1.9,10.11-.02.04-.03.08-.05.11-1.43,3.47-4.72,5.79-8.48,5.79h-8c-5.03,0-9.12,4.08-9.12,9.12v9.68c0,5.03,4.08,9.12,9.12,9.12h8c3.75,0,7.04,2.32,8.48,5.79.02.04.03.08.05.11,1.44,3.47.75,7.45-1.9,10.11l-5.65,5.66c-3.56,3.56-3.56,9.33,0,12.89l6.83,6.84c3.56,3.56,9.33,3.56,12.88,0l5.66-5.66c2.66-2.66,6.63-3.34,10.1-1.9.04.02.08.03.11.05,3.47,1.43,5.78,4.73,5.78,8.49v8.01c0,5.03,4.08,9.12,9.12,9.12h9.67c5.02,0,9.11-4.08,9.11-9.12v-8.01c0-3.75,2.32-7.05,5.79-8.49.04-.02.08-.03.11-.05,3.46-1.44,7.44-.75,10.1,1.9l5.65,5.66c3.56,3.56,9.32,3.56,12.88,0l6.83-6.84c3.56-3.56,3.56-9.33,0-12.89l-5.65-5.66c-2.66-2.66-3.34-6.64-1.9-10.11.02-.04.03-.08.05-.11,1.43-3.47,4.73-5.79,8.48-5.79h8.01c5.02,0,9.11-4.08,9.11-9.12v-9.68c0-5.03-4.08-9.12-9.11-9.12Zm-64.29,34.28c-11.22,0-20.31-9.1-20.31-20.33s9.09-20.33,20.31-20.33,20.31,9.1,20.31,20.33-9.09,20.33-20.31,20.33Z"/>
          <path class="cls-4" d="m479.7,243.18h-5.83c-2.72,0-5.12-1.69-6.16-4.21-.01-.03-.02-.06-.03-.08-1.05-2.52-.55-5.42,1.38-7.35l4.11-4.12c2.59-2.59,2.59-6.79,0-9.38l-4.97-4.98c-2.59-2.59-6.79-2.59-9.37,0l-4.12,4.12c-1.93,1.93-4.83,2.43-7.34,1.38-.03,0-.06-.02-.08-.03-2.52-1.04-4.21-3.44-4.21-6.17v-5.83c0-3.66-2.97-6.63-6.62-6.63h-7.04c-3.65,0-6.62,2.97-6.62,6.63v5.83c0,2.73-1.69,5.13-4.21,6.17-.03.01-.06.02-.08.03-2.52,1.05-5.41.55-7.34-1.38l-4.12-4.12c-2.59-2.59-6.78-2.59-9.37,0l-4.98,4.98c-2.58,2.59-2.58,6.79,0,9.38l4.12,4.12c1.93,1.93,2.43,4.83,1.38,7.35,0,.03-.02.06-.03.08-1.04,2.52-3.44,4.21-6.17,4.21h-5.82c-3.66,0-6.63,2.97-6.63,6.63v7.04c0,3.66,2.97,6.63,6.63,6.63h5.82c2.73,0,5.13,1.69,6.17,4.21.01.03.02.06.03.08,1.05,2.52.55,5.42-1.38,7.35l-4.12,4.12c-2.58,2.59-2.58,6.79,0,9.38l4.98,4.98c2.59,2.59,6.78,2.59,9.37,0l4.12-4.12c1.93-1.93,4.82-2.43,7.34-1.38.03.01.06.02.08.03,2.52,1.04,4.21,3.44,4.21,6.17v5.83c0,3.66,2.97,6.63,6.62,6.63h7.04c3.65,0,6.62-2.97,6.62-6.63v-5.83c0-2.73,1.69-5.13,4.21-6.17.03-.01.06-.02.08-.03,2.51-1.05,5.41-.55,7.34,1.38l4.12,4.12c2.58,2.59,6.78,2.59,9.37,0l4.97-4.98c2.59-2.59,2.59-6.79,0-9.38l-4.11-4.12c-1.93-1.93-2.43-4.83-1.38-7.35.01-.03.02-.06.03-.08,1.04-2.52,3.44-4.21,6.16-4.21h5.83c3.66,0,6.62-2.97,6.62-6.63v-7.04c0-3.66-2.96-6.63-6.62-6.63Zm-46.76,24.94c-8.16,0-14.78-6.62-14.78-14.79s6.62-14.79,14.78-14.79,14.78,6.62,14.78,14.79-6.62,14.79-14.78,14.79Z"/>
        </g>
        <path class="cls-3" d="m.02,246.53s51.95,134.01,133.75,171.81c63.66,29.42,129.22-13.17,152.26-27.8l-22.93-11.83-62.65-32.44-125.24-64.98,130.49,53.61,65.27,26.74,24.13,9.85c-3.71-26.77-19.19-91.56-83.22-121.15C130.08,212.54,0,246.53,0,246.53h.02Z"/>
        <path class="cls-5" d="m13.22,0s2.05,126.05,57.87,182.03c43.44,43.56,110.3,28.47,133.7,23.44l-15.26-16.71-41.7-45.74L64.53,51.47l91.08,83.8,45.57,41.85,16.85,15.44c5.08-23.15,12.02-81.16-31.67-124.98C130.54,11.6,13.21,0,13.21,0h.01Z"/>
        <path class="cls-11" d="m365.04,280.58c-16.02,6.09-33.95-1.62-40.66-17.23l14.99-5.7-37.11-23.55-12.11,42.27,15.49-5.89c10.64,25.94,40.17,38.87,66.52,28.84,5.18-1.97,7.77-7.76,5.81-12.94-1.97-5.18-7.76-7.78-12.93-5.81h0Z"/>
        <path class="cls-6" d="m415.84,143.28c16.6-4.28,33.56,5.38,38.5,21.63l-15.53,4,34.27,27.52,16.72-40.66-16.05,4.14c-7.7-26.97-35.62-43.08-62.91-36.05-5.36,1.38-8.58,6.85-7.21,12.21,1.38,5.36,6.85,8.59,12.2,7.21h.01Z"/>
      </g>
    </g>
  </g>
</svg>