<svg width="243" height="56" viewBox="0 0 243 56" fill="none" xmlns="http://www.w3.org/2000/svg">
<path fill-rule="evenodd" clip-rule="evenodd" d="M50.0073 30.9234C50.0073 31.3304 50.6549 32.4344 50.8566 32.8378L52.548 36.663C52.8028 37.3035 52.9019 38.2094 53.7618 38.2094C54.6216 38.2094 54.7561 37.2646 54.9897 36.5675C56.2742 32.7246 56.7908 26.9779 55.8566 22.8696C55.6125 21.808 54.5367 21.5815 53.9422 22.7174C53.0222 24.4867 52.0632 25.6509 51.2812 26.8965C50.9592 27.4096 51.1892 27.7776 51.0724 28.4535C50.8672 29.6071 50.0109 30.6014 50.0109 30.9305L50.0073 30.9234Z" fill="#2E3191"/>
<path fill-rule="evenodd" clip-rule="evenodd" d="M18.0789 14.292C17.4793 15.75 16.9595 17.2396 16.5219 18.7541C15.9291 20.8121 15.4985 22.9134 15.2339 25.0387H15.9664H16.1716C18.2122 25.0387 19.8376 24.5279 21.0478 23.5064C21.6316 23.0327 22.0989 22.4313 22.4136 21.7484C22.7284 21.0656 22.8821 20.3196 22.8631 19.568C22.8818 18.8126 22.725 18.0631 22.4051 17.3785C22.0852 16.6939 21.6109 16.0928 21.0195 15.6225C20.1665 14.9392 19.1552 14.4816 18.0789 14.292ZM42.0706 22.682C41.0868 21.6912 40.0925 20.8313 38.9424 19.8015C38.4683 19.3805 38.0047 19.0761 37.527 18.6869L35.9948 17.5652C33.9865 16.1781 31.8708 14.9534 29.6678 13.9027C30.7001 15.4402 31.2383 17.2563 31.2106 19.108C31.2295 20.2936 30.9445 21.4644 30.3826 22.5086C31.1891 22.6215 32.0028 22.6747 32.8171 22.6678L42.0706 22.682ZM41.4018 35.1697C42.9729 33.9807 44.7528 32.5405 45.0182 31.9849C45.3721 31.2347 44.7847 31.4223 45.2836 29.8264C45.8073 28.1385 46.699 28.326 45.7401 26.9743C45.2848 26.9389 44.7965 26.9212 44.2751 26.9212H41.4018V35.1697ZM32.9728 40.1697C33.3267 40.0175 33.6522 39.8654 33.9636 39.7167C34.2718 39.5928 34.573 39.4522 34.866 39.2957C35.1632 39.1152 35.4322 38.963 35.6905 38.8215V26.9353H31.0903C29.2715 26.9353 28.1627 26.3645 27.764 25.2227C26.5559 25.965 25.2224 26.4806 23.8291 26.7443C26.2412 27.1361 28.5136 28.1359 30.4321 29.6494C31.4196 30.467 32.2238 31.4834 32.7924 32.6325C33.4062 33.8636 33.7167 35.2237 33.6983 36.5992C33.7096 37.8271 33.4625 39.0436 32.9728 40.1697ZM14.9048 30.3749C14.9244 33.7225 15.3305 37.0567 16.115 40.3112C16.4688 41.7691 16.851 41.2277 17.7923 42.123C19.9956 42.0121 21.7543 41.4837 23.0683 40.5377C23.7662 40.0737 24.3362 39.4415 24.7258 38.6995C25.1153 37.9575 25.312 37.1293 25.2976 36.2914C25.3115 35.4491 25.1149 34.6166 24.7256 33.8695C24.3363 33.1225 23.7667 32.4844 23.0683 32.0132C21.5821 30.9233 19.525 30.3784 16.897 30.3784L14.9048 30.3749Z" fill="#2E3191"/>
<path fill-rule="evenodd" clip-rule="evenodd" d="M54.5331 18.3402C54.5331 17.6714 52.732 14.2071 52.1516 13.326C51.6385 12.5439 51.1962 11.9105 50.6548 11.178C46.7571 6.08092 41.2519 2.44986 35.0319 0.873656C34.0942 0.643647 33.0468 0.470256 31.9533 0.31102C27.7459 -0.29408 27.9724 -0.0817643 26.3553 1.53183C25.2937 2.59341 22.661 5.74276 22.1833 6.74772C21.8577 7.43067 22.1514 7.37405 22.1833 8.18085C22.2045 8.60194 22.1833 8.91334 22.2222 9.15042C24.0589 9.54179 25.7911 10.3198 27.3036 11.4328C30.8788 12.8429 34.2652 14.6912 37.3851 16.9353C37.7779 17.2326 38.0928 17.413 38.475 17.7244L39.9859 18.9736C41.2103 20.1094 42.8168 21.3798 43.935 22.682H46.0015C48.3276 22.682 49.4906 23.615 49.4906 25.481C49.4901 25.7211 49.4531 25.9598 49.3809 26.1887C50.1382 26.1215 50.1842 26.1887 50.5805 25.6332C51.3059 24.5928 54.5508 19.1646 54.5508 18.3437L54.5331 18.3402Z" fill="#2E3191"/>
<path fill-rule="evenodd" clip-rule="evenodd" d="M13.8925 25.0139C14.0398 23.6657 14.2762 22.3287 14.6002 21.0118C15.0779 19.1186 15.6158 16.8539 16.3448 15.028C16.4969 14.6459 16.6208 14.3522 16.6986 14.1186C16.4332 14.1186 16.1572 14.0938 15.8777 14.0938C13.9963 14.0534 12.1187 14.2797 10.3008 14.7662V24.9821L13.8925 25.0139ZM14.3455 41.9992C14.671 41.341 15.1452 41.8116 14.5932 39.6212C13.905 36.5869 13.5737 33.4826 13.6059 30.3714H10.3115V39.0834C10.3115 40.6828 11.6561 41.6559 14.3455 42.0027V41.9992ZM0 27.0592C0 30.3749 0 31.9071 0.90588 35.198C1.23559 36.4243 1.64215 37.6286 2.12316 38.8038C2.12316 38.6729 2.12316 38.5455 2.12316 38.411V17.3387C0.888187 20.2864 0 23.9064 0 27.0592Z" fill="#2E3191"/>
<path fill-rule="evenodd" clip-rule="evenodd" d="M18.9883 48.2555C18.9883 48.9349 22.7852 55.1345 23.3337 55.5025C24.1511 56.051 28.2311 55.9837 29.4767 55.9837C30.8691 55.9526 32.2554 55.7891 33.6168 55.4954C38.0719 54.6072 41.4548 52.9724 45.0323 50.4635C45.4857 50.1507 45.9194 49.8104 46.331 49.4444C46.7768 49.0269 47.1059 48.7792 47.5447 48.3404C48.3555 47.5667 49.1233 46.7492 49.8448 45.8917C50.2164 45.421 50.5242 45.0601 50.871 44.6001C53.0968 41.6418 52.8703 41.7692 51.9326 39.0233C51.3895 37.3513 50.7406 35.7155 49.9899 34.1259C48.7655 31.6488 48.7938 32.1761 47.481 32.6113C46.1682 33.0466 46.6565 32.3601 45.4923 33.4924C44.2201 34.7261 42.8523 35.8573 41.4017 36.8753V45.7218C41.4017 47.0311 41.8016 47.891 42.6013 48.3015C42.1942 48.794 41.6826 49.1899 41.1037 49.4604C40.5247 49.7309 39.8928 49.8693 39.2538 49.8655C36.8782 49.8655 35.6904 48.4229 35.6904 45.5378V40.3396C35.2764 40.559 34.8589 40.7713 34.4449 40.9801C33.5956 41.4083 32.6756 41.8081 31.7555 42.1797C30.9749 43.1243 30.0577 43.9472 29.0343 44.6213C26.4394 46.3694 23.1626 47.3861 19.2041 47.6716C19.0821 47.8478 19.0077 48.0526 18.9883 48.2661V48.2555Z" fill="#2E3191"/>
<path fill-rule="evenodd" clip-rule="evenodd" d="M6.61352 46.0544C7.10893 46.9426 8.35451 47.9405 8.85699 48.4501C9.0809 48.6676 9.3172 48.872 9.56471 49.0622C9.86549 49.317 10.007 49.4621 10.3361 49.7275C11.8935 50.9862 13.583 52.0719 15.3751 52.9653C16.0403 53.2979 18.5846 54.5506 19.3135 54.5506C19.535 54.5152 19.7396 54.4104 19.8979 54.2515C20.0562 54.0926 20.1601 53.8876 20.1946 53.666C20.1946 53.1776 18.9844 51.3623 18.6837 50.7608C18.3829 50.1592 17.5018 48.2625 17.0134 47.9051C16.9299 47.8462 16.8424 47.793 16.7516 47.7459C12.3449 47.7459 8.96315 47.1821 6.60645 46.0544H6.61352Z" fill="#2E3191"/>
<path fill-rule="evenodd" clip-rule="evenodd" d="M9.38428 7.40947C9.38428 8.8603 10.4459 8.52059 12.8096 8.51352L13.4006 8.56306C14.2192 8.51823 15.0448 8.49464 15.8776 8.49228C16.5039 8.49228 17.1126 8.49228 17.7 8.53829C18.1883 8.04996 18.5174 7.12285 20.4211 6.50713C20.959 6.33728 21.3058 5.62248 21.8118 4.9183L23.7545 2.44129C24.0801 2.02727 24.303 1.9742 24.303 1.33371C24.303 0.364136 23.3759 0.445524 22.5832 0.625992C20.3399 1.05602 18.1604 1.76945 16.097 2.74915C14.8523 3.34472 13.6478 4.02085 12.4912 4.77322C11.9993 5.09877 9.40197 6.9353 9.40197 7.42363L9.38428 7.40947Z" fill="#2E3191"/>
<path fill-rule="evenodd" clip-rule="evenodd" d="M240.227 27.8923V32.5456H223.857C226.193 31.5665 229.185 31.0511 232.835 30.9992V26.5264C232.835 24.4245 231.988 23.3735 230.294 23.3735C229.66 23.3515 229.043 23.5789 228.574 24.0069C228.346 24.2245 228.167 24.4883 228.05 24.7806C227.932 25.0729 227.878 25.387 227.891 25.7019C227.897 26.4231 228.165 27.1176 228.645 27.6552C228.133 28.2069 227.509 28.6433 226.816 28.9355C226.122 29.2278 225.374 29.3691 224.622 29.3502C223.003 29.3502 221.811 28.9893 221.044 28.2674C220.661 27.9055 220.359 27.4655 220.16 26.9771C219.961 26.4888 219.869 25.9634 219.891 25.4365C219.891 23.6767 220.965 22.2329 223.114 21.1053C225.448 19.9335 228.034 19.3515 230.645 19.4103C233.518 19.4103 235.833 20.085 237.591 21.4344C239.348 22.7838 240.227 24.934 240.227 27.8852V27.8923Z" fill="#2E3191"/>
<path fill-rule="evenodd" clip-rule="evenodd" d="M215.85 27.8923V32.5455H208.461V28.9751C208.517 28.0176 208.224 27.0724 207.637 26.3141C207.346 25.9876 206.985 25.7311 206.581 25.5639C206.177 25.3966 205.741 25.3228 205.305 25.348C204.302 25.348 203.33 25.7951 202.389 26.6892C201.448 27.5833 200.773 28.909 200.365 30.6665V32.5455H192.973V28.9751C193.028 28.0176 192.735 27.0724 192.148 26.3141C191.859 25.9891 191.501 25.7335 191.1 25.5663C190.698 25.399 190.264 25.3244 189.83 25.348C188.825 25.348 187.852 25.8116 186.911 26.7387C185.97 27.6658 185.292 29.0388 184.876 30.8576V32.5455H177.488V24.7359C177.488 23.1058 176.953 22.0076 175.885 21.4414C177.078 20.0921 178.475 19.4174 180.074 19.4174C181.674 19.4174 182.853 19.8172 183.613 20.6169C184.366 21.4167 184.789 22.6493 184.883 24.3148C185.667 22.7867 186.885 21.5238 188.383 20.6842C189.863 19.8546 191.534 19.4241 193.231 19.4351C194.818 19.3854 196.373 19.8854 197.633 20.8505C198.827 21.7941 199.626 23.16 200.032 24.9482C200.773 23.2454 202.022 21.8139 203.61 20.8505C205.234 19.8931 207.092 19.4032 208.978 19.4351C209.912 19.4074 210.841 19.5872 211.698 19.9617C212.554 20.3362 213.317 20.8959 213.932 21.6007C215.217 23.0444 215.86 25.1475 215.86 27.91L215.85 27.8923Z" fill="#2E3191"/>
<path fill-rule="evenodd" clip-rule="evenodd" d="M165.768 28.9751C166.244 28.9515 166.695 28.7596 167.042 28.4337C167.321 28.1318 167.461 27.5585 167.463 26.714C167.469 25.8808 167.214 25.0668 166.734 24.3856C166.521 24.0512 166.225 23.7778 165.874 23.5918C165.524 23.4058 165.131 23.3135 164.735 23.324C163.886 23.324 163.085 23.8583 162.332 24.927C161.58 25.9956 161.078 27.5479 160.828 29.5838L165.768 28.9751ZM153.358 32.5456C153.419 29.2145 154.629 26.0069 156.784 23.4655C157.831 22.1717 159.16 21.1344 160.669 20.4328C162.178 19.7312 163.828 19.3839 165.492 19.4174C168.189 19.4174 170.417 20.2879 172.177 22.0289C173.936 23.7698 174.815 25.755 174.813 27.9843C174.813 29.7111 174.405 30.9508 173.589 31.7034C173.128 32.1045 172.582 32.3961 171.993 32.5562H172.024L153.358 32.5456Z" fill="#2E3191"/>
<path fill-rule="evenodd" clip-rule="evenodd" d="M150.106 27.8923V32.5455H142.714V28.9751C142.714 27.8427 142.442 26.9581 141.893 26.3141C141.602 25.9878 141.242 25.7315 140.838 25.5642C140.434 25.3969 139.998 25.323 139.561 25.348C138.556 25.348 137.583 25.8116 136.642 26.7387C135.701 27.6658 135.03 29.0388 134.629 30.8576V32.5455H127.229V24.7359C127.229 23.1058 126.696 22.0076 125.63 21.4414C126.824 20.0921 128.22 19.4174 129.82 19.4174C131.419 19.4174 132.599 19.8172 133.358 20.6169C134.111 21.4167 134.534 22.6493 134.629 24.3148C135.413 22.7879 136.628 21.5253 138.125 20.6842C139.715 19.8277 141.499 19.3974 143.305 19.4351C144.227 19.4143 145.142 19.5977 145.984 19.9721C146.826 20.3465 147.576 20.9026 148.178 21.6007C149.461 23.0444 150.104 25.1475 150.106 27.91V27.8923Z" fill="#2E3191"/>
<path fill-rule="evenodd" clip-rule="evenodd" d="M123.705 32.5455H116.2C116.2 32.4394 116.2 32.3297 116.175 32.22C115.738 26.0699 114.013 22.9949 110.998 22.9949C110.376 22.9711 109.76 23.1248 109.223 23.4381C108.685 23.7514 108.248 24.2114 107.962 24.7642C107.287 25.9437 106.95 27.713 106.95 30.0721C106.95 30.7609 106.98 31.4816 107.042 32.2341C107.042 32.3438 107.042 32.4535 107.066 32.5597H99.5151C99.5151 28.4479 100.626 24.9623 102.852 22.7507C105.078 20.5391 108.001 19.4315 111.61 19.4315C115.219 19.4315 118.139 20.5391 120.365 22.7507C122.59 24.9623 123.705 28.4337 123.705 32.5455Z" fill="#2E3191"/>
<path fill-rule="evenodd" clip-rule="evenodd" d="M95.4455 31.3496C94.9351 30.3085 94.2118 29.3863 93.3223 28.6425C91.5819 27.2641 89.5188 26.3519 87.328 25.9921C89.4299 25.5581 91.0694 24.7324 92.2466 23.5151C92.825 22.9305 93.2798 22.2353 93.5838 21.4711C93.8877 20.7069 94.0347 19.8893 94.0159 19.0671C94.0159 16.2763 92.8623 13.9703 90.5552 12.1492C88.248 10.328 84.7566 9.41736 80.0809 9.41736C75.389 9.42686 70.7353 10.263 66.3335 11.8873C67.178 13.173 67.6015 14.8986 67.6038 17.0643V32.5456H75.0349V29.3043H81.0187C83.4037 29.3043 85.272 29.7985 86.6238 30.7869C87.2711 31.245 87.799 31.8518 88.1631 32.5562H95.9267C95.8042 32.1399 95.643 31.736 95.4455 31.3496ZM84.7873 23.0657C83.6856 23.9928 82.21 24.4564 80.3605 24.4564H80.1729L75.042 24.4068V15.1357C76.6911 14.6923 78.3949 14.4862 80.1022 14.5235C82.0932 14.5235 83.6467 14.9859 84.7625 15.9107C85.5786 16.5601 86.1378 17.4779 86.3407 18.5009C86.4028 18.8263 86.4336 19.1569 86.4327 19.4882C86.4498 20.1706 86.3104 20.8478 86.0252 21.4679C85.74 22.0881 85.3165 22.6346 84.7873 23.0657Z" fill="#2E3191"/>
<path fill-rule="evenodd" clip-rule="evenodd" d="M186.532 44.3503C186.006 44.9885 185.345 45.5016 184.595 45.8523C183.846 46.203 183.028 46.3826 182.201 46.3779C179.134 46.3779 177.601 44.5096 177.601 40.7728V33.8513H184.993V41.0099C184.984 42.7061 185.497 43.8195 186.532 44.3503Z" fill="url(#paint0_linear_313_304)"/>
<path fill-rule="evenodd" clip-rule="evenodd" d="M201.971 44.3503C201.461 44.995 200.809 45.5134 200.066 45.865C199.322 46.2167 198.508 46.3922 197.686 46.3779C194.619 46.3779 193.086 44.5096 193.086 40.7728V33.8513H200.475V41.0099C200.467 42.7061 200.966 43.8195 201.971 44.3503Z" fill="url(#paint1_linear_313_304)"/>
<path fill-rule="evenodd" clip-rule="evenodd" d="M217.456 44.3503C216.947 44.995 216.295 45.5133 215.552 45.865C214.81 46.2167 213.996 46.3922 213.174 46.3779C210.108 46.3779 208.574 44.5096 208.574 40.7728V33.8513H215.966V41.0099C215.957 42.7061 216.453 43.8195 217.456 44.3503Z" fill="url(#paint2_linear_313_304)"/>
<path fill-rule="evenodd" clip-rule="evenodd" d="M174.3 40.2562C174.3 41.7636 173.406 43.1602 171.617 44.4459C169.776 45.7505 167.564 46.428 165.308 46.3779C161.576 46.3779 158.666 45.3576 156.578 43.3171C154.491 41.2765 153.447 38.35 153.447 34.5378C153.447 34.3078 153.447 34.0778 153.447 33.8513H160.814V34.4847C161.034 39.0023 162.995 41.2623 166.699 41.2647C167.941 41.2844 169.173 41.0287 170.304 40.516C171.436 40.0033 172.441 39.2463 173.245 38.2993C173.946 38.5989 174.297 39.2512 174.3 40.2562Z" fill="url(#paint3_linear_313_304)"/>
<path fill-rule="evenodd" clip-rule="evenodd" d="M136.274 44.4529C135.747 45.0906 135.085 45.6031 134.336 45.9533C133.587 46.3034 132.769 46.4822 131.942 46.4769C128.876 46.4769 127.342 44.6097 127.342 40.8753V33.9503H134.731V41.1124C134.724 42.8086 135.238 43.9221 136.274 44.4529Z" fill="url(#paint4_linear_313_304)"/>
<path fill-rule="evenodd" clip-rule="evenodd" d="M151.716 44.4529C151.206 45.0969 150.554 45.6146 149.81 45.9656C149.067 46.3167 148.253 46.4916 147.431 46.4769C144.364 46.4769 142.831 44.6097 142.831 40.8753V33.9503H150.198V41.1124C150.198 42.8086 150.704 43.9221 151.716 44.4529Z" fill="url(#paint5_linear_313_304)"/>
<path fill-rule="evenodd" clip-rule="evenodd" d="M123.868 34.0247C123.811 37.9784 122.69 41.0452 120.506 43.225C118.262 45.4543 115.344 46.569 111.751 46.569C108.159 46.569 105.247 45.4543 103.018 43.225C100.85 41.0594 99.7367 37.9985 99.6777 34.0424H107.229C107.647 39.999 109.365 42.9773 112.385 42.9773C115.084 42.9773 116.433 40.6088 116.433 35.8718C116.433 35.3021 116.412 34.6899 116.366 34.0282L123.868 34.0247Z" fill="url(#paint6_linear_313_304)"/>
<path fill-rule="evenodd" clip-rule="evenodd" d="M96.2173 36.0522C96.2173 39.0034 94.8018 41.4285 91.971 43.3276C88.6774 45.4971 84.8067 46.6242 80.8633 46.5619C76.2632 46.5619 72.9156 45.5003 70.7642 44.1733C68.6127 42.8463 67.5405 40.6807 67.5405 37.7012V33.646H74.9716V38.3099C74.9716 40.1641 76.9638 41.09 80.9483 41.0877C83.3333 41.0877 85.2016 40.6017 86.5534 39.6298C87.1869 39.2073 87.704 38.6323 88.0571 37.9577C88.4102 37.2831 88.5879 36.5305 88.5739 35.7692C88.5843 35.0333 88.4194 34.3055 88.0927 33.646H95.8776C96.1079 34.4271 96.2223 35.2379 96.2173 36.0522Z" fill="url(#paint7_linear_313_304)"/>
<path fill-rule="evenodd" clip-rule="evenodd" d="M240.326 39.8811V33.8655H223.96C223.474 34.0638 223.001 34.2931 222.545 34.552C220.051 35.9816 218.803 37.8877 218.801 40.2703C218.801 42.2166 219.445 43.7228 220.733 44.7891C222.021 45.8554 223.751 46.385 225.924 46.3779C227.291 46.4097 228.65 46.149 229.908 45.6132C231.166 45.0773 232.296 44.2788 233.221 43.2711C233.784 45.3423 235.227 46.3779 237.548 46.3779C238.61 46.3803 239.655 46.1124 240.584 45.5995C241.486 45.1318 242.268 44.4635 242.87 43.6461C241.176 43.113 240.328 41.858 240.326 39.8811ZM232.937 39.9271C231.899 41.1208 230.738 41.7176 229.452 41.7176C227.697 41.7176 226.818 40.9486 226.816 39.4105C226.816 36.9311 228.856 35.5817 232.937 35.3623V39.9271Z" fill="url(#paint8_linear_313_304)"/>
<defs>
<linearGradient id="paint0_linear_313_304" x1="182.06" y1="25.4189" x2="182.06" y2="38.6532" gradientUnits="userSpaceOnUse">
<stop stop-color="white"/>
<stop offset="1" stop-color="#25B0E5"/>
</linearGradient>
<linearGradient id="paint1_linear_313_304" x1="197.523" y1="25.4189" x2="197.523" y2="38.6532" gradientUnits="userSpaceOnUse">
<stop stop-color="white"/>
<stop offset="1" stop-color="#25B0E5"/>
</linearGradient>
<linearGradient id="paint2_linear_313_304" x1="213.008" y1="25.4189" x2="213.008" y2="38.6532" gradientUnits="userSpaceOnUse">
<stop stop-color="white"/>
<stop offset="1" stop-color="#25B0E5"/>
</linearGradient>
<linearGradient id="paint3_linear_313_304" x1="163.875" y1="25.4189" x2="163.875" y2="38.6532" gradientUnits="userSpaceOnUse">
<stop stop-color="white"/>
<stop offset="1" stop-color="#25B0E5"/>
</linearGradient>
<linearGradient id="paint4_linear_313_304" x1="131.804" y1="25.5179" x2="131.804" y2="38.7557" gradientUnits="userSpaceOnUse">
<stop stop-color="white"/>
<stop offset="1" stop-color="#25B0E5"/>
</linearGradient>
<linearGradient id="paint5_linear_313_304" x1="147.265" y1="25.5179" x2="147.265" y2="38.7557" gradientUnits="userSpaceOnUse">
<stop stop-color="white"/>
<stop offset="1" stop-color="#25B0E5"/>
</linearGradient>
<linearGradient id="paint6_linear_313_304" x1="111.773" y1="25.2136" x2="111.773" y2="38.4479" gradientUnits="userSpaceOnUse">
<stop stop-color="white"/>
<stop offset="1" stop-color="#25B0E5"/>
</linearGradient>
<linearGradient id="paint7_linear_313_304" x1="81.886" y1="25.5957" x2="81.886" y2="38.232" gradientUnits="userSpaceOnUse">
<stop stop-color="white"/>
<stop offset="1" stop-color="#25B0E5"/>
</linearGradient>
<linearGradient id="paint8_linear_313_304" x1="230.843" y1="25.4189" x2="230.843" y2="38.6532" gradientUnits="userSpaceOnUse">
<stop stop-color="white"/>
<stop offset="1" stop-color="#25B0E5"/>
</linearGradient>
</defs>
</svg>
